<svg xmlns="http://www.w3.org/2000/svg" version="1.1" xmlns:xlink="http://www.w3.org/1999/xlink" xmlns:svgjs="http://svgjs.dev/svgjs" viewBox="0 0 22.147430302358288 6.055708894185377"><g transform="matrix(0.7204056805316842,0,0,0.7204056805316842,3.942718755263904,1.828298650887813)"><g transform="matrix(1,0,0,1,0,0)" clip-path="url(#SvgjsClipPath3909)"><g clip-path="url(#SvgjsClipPath390784ef8bad-3f84-405c-835d-e57cf58714ce)"><path d=" M 4.614686262851649 1.712907452945515 L 4.718418848973839 1.7727418082548358 L 5.542021950800965 1.2971923621854555 L 5.542021950800965 -0.008193992671400058 L 5.438289364678776 -0.06798418477064783 L 5.438289364678776 -0.050298517721290764 L 5.438289364678776 -0.050298517721290764 L 5.438289364678776 1.2373580068761343 L 5.384882455020124 1.2681703388272807 L 4.614686262851649 1.712907452945515 Z" fill="#ffffff" transform="matrix(1,0,0,1,0,0)" fill-rule="nonzero"></path></g><g clip-path="url(#SvgjsClipPath390784ef8bad-3f84-405c-835d-e57cf58714ce)"><path d=" M 4.307765541522181 1.2971923621854555 L 5.1315215159995615 1.7728980780750956 L 5.235260896461762 1.7130637227657746 L 4.411501524814376 1.2373580068761343 L 4.411501524814376 0.6444838974920022 L 4.9248716645565365 0.34806382864996444 L 5.292601728986944 0.5604175285324576 L 5.292601728986944 0.44063671130362936 L 4.9248716645565365 0.22843588407138993 L 4.307765541522181 0.5846869110527432 L 4.307765541522181 1.2971923621854555 Z" fill="#ffffff" transform="matrix(1,0,0,1,0,0)" fill-rule="nonzero"></path></g><g clip-path="url(#SvgjsClipPath390784ef8bad-3f84-405c-835d-e57cf58714ce)"><path d=" M 4.40756420477784 1.593126635716687 L 4.511300188070035 1.652957593856002 L 5.334706254036835 1.177564417606881 L 5.334706254036835 -0.12781854007996893 L 5.230973667914646 -0.18761212934922233 L 5.230973667914646 1.042200781562186 L 5.230973667914646 1.11773006229756 L 5.222480742900548 1.1224861003054545 L 4.40756420477784 1.593126635716687 Z" fill="#ffffff" transform="matrix(1,0,0,1,0,0)" fill-rule="nonzero"></path></g><g clip-path="url(#SvgjsClipPath390784ef8bad-3f84-405c-835d-e57cf58714ce)"><path d=" M 4.515040472246244 1.177564417606881 L 5.338331034432851 1.652763955165681 L 5.44186998186472 1.5929703658964272 L 4.618773058368433 1.11773006229756 L 4.618773058368433 0.7642850977408642 L 4.9248716645565365 0.5874725904573673 L 5.292601728986944 0.7998296875098659 L 5.292601728986944 0.6800454731110321 L 4.9248716645565365 0.46786502889882664 L 4.515040472246244 0.7044711254515771 L 4.515040472246244 1.177564417606881 Z" fill="#ffffff" transform="matrix(1,0,0,1,0,0)" fill-rule="nonzero"></path></g><g clip-path="url(#SvgjsClipPath390784ef8bad-3f84-405c-835d-e57cf58714ce)"><path d=" M 4.9248716645565365 1.7732072205456086 L 5.488574275102246 1.4477855113654299 L 5.645560898232834 1.3569859514547087 L 5.645560898232834 0.05162337678789283 L 5.749296881525028 0.11159022172743388 L 5.749296881525028 0.9409209521840682 L 5.749296881525028 1.4169765765842892 L 5.337002740960647 1.6549041722692337 L 4.9248716645565365 1.8928351651241828 L 4.8211390784343475 1.8330449730249352 L 4.9248716645565365 1.7732072205456086 Z" fill="#ffffff" transform="matrix(1,0,0,1,0,0)" fill-rule="nonzero"></path></g><g clip-path="url(#SvgjsClipPath390784ef8bad-3f84-405c-835d-e57cf58714ce)"><path d=" M 4.100453241928056 1.4169765765842892 L 4.100453241928056 0.9409209521840682 L 4.100453241928056 0.4650589664741688 L 4.5127371909824205 0.22697170379895953 L 4.9248716645565365 -0.010976274906018463 L 5.292601728986944 0.20122455232622094 L 5.292601728986944 0.32100876672505485 L 4.9248716645565365 0.10865166967255607 L 4.204185828050245 0.524872938763456 L 4.204185828050245 1.3569859514547087 L 5.028611045018737 1.8330449730249352 L 4.9248716645565365 1.8928351651241828 L 4.100453241928056 1.4169765765842892 Z" fill="#ffffff" transform="matrix(1,0,0,1,0,0)" fill-rule="nonzero"></path></g></g><g><path d=" M 0.20036370670355783 0.020462676429299664 L 0.6931731640425214 0.020462676429299664 L 0.6931731640425214 1.0913427428959748 Q 0.6940257755604089 1.2115609669181095 0.6569371745323035 1.3160058778593258 Q 0.6198485735041981 1.420450788800542 0.5473765944837623 1.501022577240909 Q 0.47490461546332646 1.5815943656812759 0.3700333987631664 1.6348825855492433 Q 0.26516218206300635 1.6881708054172109 0.13215478527255942 1.7052230357749605 L 0.07076675598466085 1.6020570421105753 Q 0.10487121670016006 1.576478696573951 0.12917064495995326 1.5474899049657767 Q 0.15347007321974643 1.5185011133576023 0.16924338630066482 1.4805599008116095 Q 0.1850166993815832 1.4426186882656165 0.1926902030425705 1.3935935259870864 Q 0.20036370670355783 1.3445683637085564 0.20036370670355783 1.2789172768312205 L 0.20036370670355783 0.020462676429299664 M 1.0180181523576515 0.020462676429299664 L 1.6881708054172109 0.020462676429299664 Q 1.8297043173865326 0.020462676429299664 1.9358544513635239 0.04433579893014916 Q 2.042004585340515 0.06820892143099844 2.1131976470841196 0.11211841460220384 Q 2.184390708827724 0.15602790777340902 2.2202003925789984 0.21784224282025133 Q 2.2560100763302726 0.27965657786709364 2.2560100763302726 0.35553900295907936 Q 2.2560100763302726 0.4314214280510651 2.2138058061948422 0.49835143220523226 Q 2.171601536059412 0.5652814363593994 2.0906034418601016 0.6138802928789858 Q 2.2236108386505484 0.6522478111839225 2.2892619255278843 0.7264250132401332 Q 2.35491301240522 0.800602215296344 2.35491301240522 0.9080312665501664 Q 2.35491301240522 0.9813558570884897 2.31952963441289 1.0495647785194882 Q 2.2841462564205592 1.1177736999504866 2.2138058061948422 1.1706356140595104 Q 2.1434653559691252 1.223497528168534 2.0377415277510775 1.2554704600893147 Q 1.9320176995330303 1.2874433920100952 1.7904841875637083 1.2874433920100952 L 1.0180181523576515 1.2874433920100952 L 1.0180181523576515 0.020462676429299664 M 1.5636895238056387 0.5354400332333377 Q 1.633603668272412 0.5354400332333377 1.681349913274111 0.5222245547060818 Q 1.72909615827581 0.5090090761788257 1.7576586441250406 0.48598856519586386 Q 1.7862211299742712 0.4629680542129019 1.7985839969836395 0.43312665108684 Q 1.810946863993008 0.40328524796077825 1.810946863993008 0.37088601028105395 Q 1.810946863993008 0.33848677260132976 1.7985839969836395 0.308645369475268 Q 1.7862211299742712 0.2788039663492061 1.7576586441250406 0.2562097611251879 Q 1.72909615827581 0.23361555590116967 1.681349913274111 0.21997377161497011 Q 1.633603668272412 0.20633198732877034 1.5636895238056387 0.20633198732877034 L 1.5116802212145024 0.20633198732877034 L 1.510827609696615 0.5354400332333377 L 1.5636895238056387 0.5354400332333377 M 1.5636895238056387 1.1015740811106245 Q 1.6395719488976246 1.1015740811106245 1.6915812514887607 1.0853744622707624 Q 1.743590554079897 1.0691748434309003 1.7759897917596212 1.0410386633406135 Q 1.8083890294393457 1.0129024832503266 1.8228834252434327 0.9749612707043337 Q 1.8373778210475198 0.9370200581583408 1.8373778210475198 0.8935368707460793 Q 1.8373778210475198 0.8551693524411428 1.8220308137255452 0.818507057171981 Q 1.8066838064035706 0.7818447619028195 1.776416097518565 0.7532822760535889 Q 1.7461483886335594 0.7247197902043583 1.7018125897034104 0.7072412540876649 Q 1.6574767907732615 0.6897627179709716 1.5994992075569128 0.6897627179709716 L 1.510827609696615 0.6897627179709716 L 1.510827609696615 1.1015740811106245 L 1.5636895238056387 1.1015740811106245 M 2.590233791342165 0.020462676429299664 L 3.2603864444017243 0.020462676429299664 Q 3.401919956371046 0.020462676429299664 3.5080700903480375 0.04433579893014916 Q 3.6142202243250283 0.06820892143099844 3.6854132860686333 0.11211841460220384 Q 3.756606347812238 0.15602790777340902 3.792416031563512 0.21784224282025133 Q 3.828225715314786 0.27965657786709364 3.828225715314786 0.35553900295907936 Q 3.828225715314786 0.4314214280510651 3.786021445179356 0.49835143220523226 Q 3.7438171750439255 0.5652814363593994 3.6628190808446153 0.6138802928789858 Q 3.795826477635062 0.6522478111839225 3.861477564512398 0.7264250132401332 Q 3.927128651389734 0.800602215296344 3.927128651389734 0.9080312665501664 Q 3.927128651389734 0.9813558570884897 3.8917452733974036 1.0495647785194882 Q 3.856361895405073 1.1177736999504866 3.786021445179356 1.1706356140595104 Q 3.7156809949536385 1.223497528168534 3.609957166735591 1.2554704600893147 Q 3.504233338517544 1.2874433920100952 3.362699826548222 1.2874433920100952 L 2.590233791342165 1.2874433920100952 L 2.590233791342165 0.020462676429299664 M 3.135905162790152 0.5354400332333377 Q 3.2058193072569257 0.5354400332333377 3.2535655522586246 0.5222245547060818 Q 3.3013117972603236 0.5090090761788257 3.329874283109554 0.48598856519586386 Q 3.358436768958785 0.4629680542129019 3.370799635968153 0.43312665108684 Q 3.3831625029775214 0.40328524796077825 3.3831625029775214 0.37088601028105395 Q 3.3831625029775214 0.33848677260132976 3.370799635968153 0.308645369475268 Q 3.358436768958785 0.2788039663492061 3.329874283109554 0.2562097611251879 Q 3.3013117972603236 0.23361555590116967 3.2535655522586246 0.21997377161497011 Q 3.2058193072569257 0.20633198732877034 3.135905162790152 0.20633198732877034 L 3.083895860199016 0.20633198732877034 L 3.0830432486811286 0.5354400332333377 L 3.135905162790152 0.5354400332333377 M 3.135905162790152 1.1015740811106245 Q 3.211787587882138 1.1015740811106245 3.2637968904732744 1.0853744622707624 Q 3.3158061930644105 1.0691748434309003 3.3482054307441347 1.0410386633406135 Q 3.3806046684238593 1.0129024832503266 3.395099064227946 0.9749612707043337 Q 3.4095934600320335 0.9370200581583408 3.4095934600320335 0.8935368707460793 Q 3.4095934600320335 0.8551693524411428 3.3942464527100586 0.818507057171981 Q 3.3788994453880843 0.7818447619028195 3.3486317365030787 0.7532822760535889 Q 3.318364027618073 0.7247197902043583 3.274028228687924 0.7072412540876649 Q 3.229692429757775 0.6897627179709716 3.1717148465414264 0.6897627179709716 L 3.0830432486811286 0.6897627179709716 L 3.0830432486811286 1.1015740811106245 L 3.135905162790152 1.1015740811106245" fill="#ffffff" fill-rule="nonzero"></path></g><g><path d=" M 6.011293069923649 0.020462676429299664 L 6.5049551387805 0.020462676429299664 L 6.504102527262613 1.2874433920100952 L 6.011293069923649 1.2874433920100952 L 6.011293069923649 0.020462676429299664 M 6.828947515577743 0.020462676429299664 L 7.13759288505301 0.020462676429299664 L 7.941605546420904 0.6957309985961839 L 7.942458157938791 0.020462676429299664 L 8.130032691874037 0.020462676429299664 L 8.130032691874037 1.2874433920100952 L 7.8213873223987695 1.2874433920100952 L 7.016522049512988 0.6147329043968733 L 7.016522049512988 1.2874433920100952 L 6.828947515577743 1.2874433920100952 L 6.828947515577743 0.020462676429299664 M 8.326985952506044 0.020462676429299664 L 8.86668904332882 0.020462676429299664 L 9.163397851553663 0.8347066760118432 L 9.437938760313433 0.020462676429299664 L 9.660470366482064 0.01961006491141215 L 9.216259765662688 1.2874433920100952 L 8.814679740737684 1.2865907804922077 L 8.326985952506044 0.020462676429299664 M 9.833550504613223 0.020462676429299664 L 10.904430571079898 0.020462676429299664 L 10.904430571079898 0.21571071402553255 L 10.327212573470074 0.21571071402553255 L 10.326359961952186 0.5576079326984121 L 10.7680127282179 0.5576079326984121 L 10.7680127282179 0.7528559702946451 L 10.326359961952186 0.7528559702946451 L 10.326359961952186 1.0921953544138623 L 10.904430571079898 1.0921953544138623 L 10.904430571079898 1.2874433920100952 L 9.833550504613223 1.2874433920100952 L 9.833550504613223 0.020462676429299664 M 11.17470842225023 1.0060815911072267 Q 11.265085243146302 1.0521226130731507 11.36398817922125 1.0751431240561127 Q 11.462891115296198 1.0981636350390747 11.548152267084946 1.0981636350390747 Q 11.646202591642005 1.0981636350390747 11.691817307848986 1.0700274549487878 Q 11.737432024055966 1.041891274858501 11.737432024055966 0.9932924183389145 Q 11.737432024055966 0.9779454110169399 11.731890049189698 0.9617457921770778 Q 11.726348074323429 0.9455461733372157 11.71057476124251 0.9297728602562972 Q 11.694801448161591 0.9139995471753788 11.667091573830248 0.8982262340944605 Q 11.639381699498905 0.8824529210135421 11.595045900568756 0.8671059136915674 L 11.442428438866898 0.8150966111004312 Q 11.278727027432502 0.7588242509198575 11.196023710197416 0.662905455157516 Q 11.113320392962331 0.5669866593951745 11.113320392962331 0.43483187412261504 Q 11.113320392962331 0.349570722333867 11.149130076713606 0.2707041569292752 Q 11.184939760464879 0.19183759152468327 11.257411739485315 0.13172847951361577 Q 11.329883718505751 0.07161936750254849 11.44029691007218 0.035809683751274246 Q 11.550710101638607 2.220446049250313e-16 11.69906450575103 2.220446049250313e-16 Q 11.772389096289352 2.220446049250313e-16 11.839745406202464 0.008526115178874916 Q 11.907101716115575 0.01705223035774983 11.966358216608755 0.030694014643949386 Q 12.025614717101934 0.04433579893014916 12.07506618513941 0.06181433504684253 Q 12.124517653176882 0.07929287116353567 12.162032559963931 0.09634510152128528 L 12.069950516032083 0.262604347509344 Q 12.042666947459685 0.24555211715159442 12.012399238574679 0.23276294438328216 Q 11.982131529689672 0.21997377161497011 11.951863820804668 0.2114476564360952 Q 11.921596111919662 0.2029215412572205 11.892607320311487 0.19865848366778294 Q 11.863618528703313 0.1943954260783456 11.839745406202464 0.1943954260783456 Q 11.798820053343865 0.1943954260783456 11.768126038699915 0.20505307005193907 Q 11.737432024055966 0.21571071402553255 11.716543041867723 0.2331892501422259 Q 11.69565405967948 0.2506677862589193 11.684996415705886 0.27240937996505 Q 11.674338771732293 0.2941509736711808 11.674338771732293 0.31546626161836777 Q 11.674338771732293 0.3342237150118923 11.683291192670112 0.35170225112858566 Q 11.69224361360793 0.36918078724527903 11.71398520731406 0.3858067118440849 Q 11.735726801020192 0.40243263644289073 11.771110179012522 0.4190585610416966 Q 11.806493557004853 0.43568448564050244 11.859355471113876 0.45358932751613956 L 11.961668853260374 0.4876937882316388 Q 12.127928099248432 0.543113536894325 12.215747085590843 0.6403112499334978 Q 12.303566071933254 0.7375089629726704 12.303566071933254 0.8756320288704422 Q 12.303566071933254 0.9694192958380651 12.261361801797822 1.0487121670016006 Q 12.219157531662393 1.1280050381651363 12.13560160290942 1.1855563156225413 Q 12.052045674156446 1.2431075930799462 11.927990698303818 1.2750805250007267 Q 11.80393572245119 1.3070534569215073 11.640234311016794 1.3070534569215073 Q 11.561794051371145 1.3070534569215073 11.488895766591765 1.2989536475015762 Q 11.415997481812386 1.290853838081645 11.346509643104557 1.274654219241783 Q 11.277021804396727 1.2584546004019208 11.209665494483616 1.233728866383184 Q 11.142309184570506 1.209003132364447 11.074952874657393 1.1757512831668353 L 11.17470842225023 1.0060815911072267 M 12.762271068556718 0.21485810250764503 L 12.400763784972426 0.21485810250764503 L 12.400763784972426 0.01961006491141215 L 13.616587809479974 0.01961006491141215 L 13.616587809479974 0.21485810250764503 L 13.255080525895682 0.21485810250764503 L 13.255080525895682 1.2874433920100952 L 12.762271068556718 1.2874433920100952 L 12.762271068556718 0.21485810250764503 M 13.801604508861557 0.020462676429299664 L 14.150322619677535 0.020462676429299664 L 14.6294902927303 0.6837944373457592 L 15.084784843282215 0.020462676429299664 L 15.424124227401432 0.020462676429299664 L 15.424124227401432 1.2874433920100952 L 14.932167381580355 1.2874433920100952 L 14.932167381580355 0.6403112499334978 L 14.45982060067069 1.3036430108499573 L 13.989179042796803 0.6403112499334978 L 13.989179042796803 1.2874433920100952 L 13.801604508861557 1.2874433920100952 L 13.801604508861557 0.020462676429299664 M 15.748116604198675 0.020462676429299664 L 16.81899667066535 0.020462676429299664 L 16.81899667066535 0.21571071402553255 L 16.241778673055524 0.21571071402553255 L 16.24092606153764 0.5576079326984121 L 16.682578827803354 0.5576079326984121 L 16.682578827803354 0.7528559702946451 L 16.24092606153764 0.7528559702946451 L 16.24092606153764 1.0921953544138623 L 16.81899667066535 1.0921953544138623 L 16.81899667066535 1.2874433920100952 L 15.748116604198675 1.2874433920100952 L 15.748116604198675 0.020462676429299664 M 17.07222229147793 0.020462676429299664 L 17.3808676609532 0.020462676429299664 L 18.184880322321092 0.6957309985961839 L 18.18573293383898 0.020462676429299664 L 18.373307467774225 0.020462676429299664 L 18.373307467774225 1.2874433920100952 L 18.064662098298957 1.2874433920100952 L 17.259796825413176 0.6147329043968733 L 17.259796825413176 1.2874433920100952 L 17.07222229147793 1.2874433920100952 L 17.07222229147793 0.020462676429299664 M 18.9198314507401 0.21485810250764503 L 18.55832416715581 0.21485810250764503 L 18.55832416715581 0.01961006491141215 L 19.774148191663354 0.01961006491141215 L 19.774148191663354 0.21485810250764503 L 19.412640908079062 0.21485810250764503 L 19.412640908079062 1.2874433920100952 L 18.9198314507401 1.2874433920100952 L 18.9198314507401 0.21485810250764503" fill="#ffffff" fill-rule="nonzero"></path></g><g><path d=" M 5.065616944096597 2.4678351651241828 L 5.845616944096596 2.4678351651241828 L 5.860616944096597 2.7798351651241826 L 5.833616944096597 2.7798351651241826 Q 5.778116944096596 2.6178351651241827 5.705366944096596 2.5593351651241827 Q 5.632616944096597 2.5008351651241822 5.488616944096597 2.5008351651241822 L 5.446616944096596 2.5008351651241822 L 5.446616944096596 2.9883351651241825 L 5.514116944096596 2.9883351651241825 Q 5.586116944096597 2.9883351651241825 5.634116944096596 2.9358351651241827 Q 5.682116944096596 2.8833351651241825 5.700116944096597 2.7918351651241826 L 5.722616944096597 2.7918351651241826 L 5.722616944096597 3.2358351651241826 L 5.697116944096597 3.2358351651241826 Q 5.673116944096597 3.1233351651241827 5.630366944096597 3.0753351651241827 Q 5.587616944096596 3.0273351651241827 5.514116944096596 3.0273351651241827 L 5.446616944096596 3.0273351651241827 L 5.446616944096596 3.4848351651241827 L 5.632616944096597 3.4848351651241827 L 5.632616944096597 3.5178351651241826 L 5.065616944096597 3.5178351651241826 L 5.065616944096597 3.4848351651241827 L 5.154116944096597 3.4848351651241827 L 5.154116944096597 2.5008351651241822 L 5.065616944096597 2.5008351651241822 L 5.065616944096597 2.4678351651241828 M 6.771792969487222 3.5178351651241826 L 6.429792969487222 3.5178351651241826 L 6.413292969487221 3.4083351651241824 Q 6.389292969487221 3.4683351651241825 6.342042969487221 3.5005851651241824 Q 6.294792969487221 3.5328351651241827 6.201792969487221 3.5328351651241827 Q 5.969292969487221 3.5328351651241827 5.969292969487221 3.2823351651241826 L 5.969292969487221 2.8308351651241823 L 5.885292969487222 2.8308351651241823 L 5.885292969487222 2.8038351651241826 L 6.248292969487221 2.8038351651241826 L 6.248292969487221 3.3183351651241826 Q 6.248292969487221 3.4083351651241824 6.261042969487222 3.4368351651241826 Q 6.273792969487221 3.4653351651241824 6.312042969487222 3.4653351651241824 Q 6.350292969487222 3.4653351651241824 6.380292969487222 3.4188351651241824 Q 6.410292969487221 3.3723351651241824 6.410292969487221 3.2898351651241824 L 6.410292969487221 2.8308351651241823 L 6.341292969487221 2.8308351651241823 L 6.341292969487221 2.8038351651241826 L 6.689292969487221 2.8038351651241826 L 6.689292969487221 3.4908351651241825 L 6.771792969487222 3.4908351651241825 L 6.771792969487222 3.5178351651241826 M 6.8070136726122215 2.8038351651241826 L 7.168513672612222 2.8038351651241826 L 7.168513672612222 2.9418351651241825 Q 7.192513672612222 2.8728351651241826 7.242013672612222 2.8308351651241823 Q 7.291513672612222 2.7888351651241825 7.392013672612221 2.7888351651241825 Q 7.624513672612221 2.7888351651241825 7.624513672612221 3.0393351651241827 L 7.624513672612221 3.4908351651241825 L 7.708513672612222 3.4908351651241825 L 7.708513672612222 3.5178351651241826 L 7.284013672612222 3.5178351651241826 L 7.284013672612222 3.4908351651241825 L 7.345513672612221 3.4908351651241825 L 7.345513672612221 3.0033351651241826 Q 7.345513672612221 2.913335165124183 7.333513672612222 2.8870851651241827 Q 7.321513672612221 2.8608351651241826 7.290013672612222 2.8608351651241826 Q 7.242013672612222 2.8608351651241826 7.2052636726122214 2.9238351651241827 Q 7.168513672612222 2.9868351651241825 7.168513672612222 3.0768351651241828 L 7.168513672612222 3.4908351651241825 L 7.233013672612222 3.4908351651241825 L 7.233013672612222 3.5178351651241826 L 6.8070136726122215 3.5178351651241826 L 6.8070136726122215 3.4908351651241825 L 6.889513672612222 3.4908351651241825 L 6.889513672612222 2.8308351651241823 L 6.8070136726122215 2.8308351651241823 L 6.8070136726122215 2.8038351651241826 M 8.051305420659096 3.4165851651241828 Q 8.067805420659097 3.4683351651241825 8.112055420659097 3.4683351651241825 Q 8.156305420659097 3.4683351651241825 8.188555420659096 3.429335165124183 Q 8.220805420659097 3.3903351651241826 8.220805420659097 3.3138351651241824 L 8.220805420659097 2.9868351651241825 Q 8.220805420659097 2.9223351651241827 8.195305420659096 2.8773351651241827 Q 8.169805420659097 2.8323351651241824 8.120305420659097 2.8323351651241824 Q 8.070805420659097 2.8323351651241824 8.052805420659096 2.8983351651241827 Q 8.034805420659097 2.9643351651241825 8.034805420659097 3.1293351651241825 L 8.034805420659097 3.2073351651241824 Q 8.034805420659097 3.3648351651241826 8.051305420659096 3.4165851651241828 M 8.240305420659096 3.5178351651241826 L 8.223805420659097 3.4128351651241826 Q 8.172805420659097 3.5328351651241827 8.016805420659097 3.5328351651241827 Q 7.887805420659097 3.5328351651241827 7.816555420659097 3.4398351651241827 Q 7.745305420659097 3.3468351651241828 7.745305420659097 3.1623351651241824 Q 7.745305420659097 2.7888351651241825 8.042305420659098 2.7888351651241825 Q 8.174305420659097 2.7888351651241825 8.216305420659097 2.8623351651241826 L 8.216305420659097 2.4198351651241827 L 8.124805420659097 2.4198351651241827 L 8.124805420659097 2.3928351651241826 L 8.499805420659097 2.3928351651241826 L 8.499805420659097 3.4908351651241825 L 8.573305420659096 3.4908351651241825 L 8.573305420659096 3.5178351651241826 L 8.240305420659096 3.5178351651241826 M 8.90331347729972 2.4678351651241828 L 9.443313477299721 2.4678351651241828 L 9.443313477299721 2.5008351651241822 L 9.28431347729972 2.5008351651241822 L 9.28431347729972 3.4848351651241827 L 9.338313477299721 3.4848351651241827 Q 9.46581347729972 3.4848351651241827 9.541563477299722 3.4068351651241824 Q 9.61731347729972 3.3288351651241825 9.69531347729972 3.1668351651241826 L 9.726813477299721 3.1668351651241826 L 9.69831347729972 3.5178351651241826 L 8.90331347729972 3.5178351651241826 L 8.90331347729972 3.4848351651241827 L 8.99181347729972 3.4848351651241827 L 8.99181347729972 2.5008351651241822 L 8.90331347729972 2.5008351651241822 L 8.90331347729972 2.4678351651241828 M 9.858075928471596 3.3033351651241825 L 9.858075928471596 2.8308351651241823 L 9.775575928471596 2.8308351651241823 L 9.775575928471596 2.8038351651241826 L 9.858075928471596 2.8038351651241826 L 9.858075928471596 2.610335165124183 L 10.137075928471596 2.5413351651241824 L 10.137075928471596 2.8038351651241826 L 10.332075928471596 2.8038351651241826 L 10.332075928471596 2.8308351651241823 L 10.137075928471596 2.8308351651241823 L 10.137075928471596 3.336335165124183 Q 10.137075928471596 3.4068351651241824 10.151325928471596 3.4398351651241827 Q 10.165575928471597 3.4728351651241827 10.210575928471597 3.4728351651241827 Q 10.255575928471597 3.4728351651241827 10.289325928471596 3.4278351651241827 Q 10.323075928471596 3.382835165124183 10.333575928471596 3.3048351651241825 L 10.359075928471595 3.3078351651241826 Q 10.347075928471597 3.4113351651241826 10.293075928471596 3.4720851651241826 Q 10.239075928471596 3.5328351651241827 10.114575928471597 3.5328351651241827 Q 9.990075928471596 3.5328351651241827 9.924075928471597 3.4833351651241826 Q 9.858075928471596 3.4338351651241825 9.858075928471596 3.3033351651241825 M 10.697298828862221 3.4165851651241828 Q 10.71379882886222 3.4683351651241825 10.758048828862222 3.4683351651241825 Q 10.802298828862222 3.4683351651241825 10.834548828862221 3.429335165124183 Q 10.86679882886222 3.3903351651241826 10.86679882886222 3.3138351651241824 L 10.86679882886222 2.9868351651241825 Q 10.86679882886222 2.9223351651241827 10.841298828862222 2.8773351651241827 Q 10.81579882886222 2.8323351651241824 10.76629882886222 2.8323351651241824 Q 10.71679882886222 2.8323351651241824 10.698798828862222 2.8983351651241827 Q 10.68079882886222 2.9643351651241825 10.68079882886222 3.1293351651241825 L 10.68079882886222 3.2073351651241824 Q 10.68079882886222 3.3648351651241826 10.697298828862221 3.4165851651241828 M 10.886298828862222 3.5178351651241826 L 10.869798828862221 3.4128351651241826 Q 10.81879882886222 3.5328351651241827 10.662798828862222 3.5328351651241827 Q 10.53379882886222 3.5328351651241827 10.462548828862221 3.4398351651241827 Q 10.39129882886222 3.3468351651241828 10.39129882886222 3.1623351651241824 Q 10.39129882886222 2.7888351651241825 10.688298828862221 2.7888351651241825 Q 10.82029882886222 2.7888351651241825 10.86229882886222 2.8623351651241826 L 10.86229882886222 2.4198351651241827 L 10.77079882886222 2.4198351651241827 L 10.77079882886222 2.3928351651241826 L 11.14579882886222 2.3928351651241826 L 11.14579882886222 3.4908351651241825 L 11.219298828862222 3.4908351651241825 L 11.219298828862222 3.5178351651241826 L 10.886298828862222 3.5178351651241826 M 11.345317871830972 3.4945851651241826 Q 11.313067871830972 3.4563351651241825 11.313067871830972 3.4015851651241826 Q 11.313067871830972 3.3468351651241828 11.346817871830972 3.3093351651241827 Q 11.380567871830971 3.2718351651241826 11.442067871830972 3.2718351651241826 Q 11.50356787183097 3.2718351651241826 11.539567871830972 3.3033351651241825 Q 11.575567871830971 3.3348351651241828 11.575567871830971 3.3978351651241825 Q 11.575567871830971 3.4608351651241827 11.541817871830972 3.4968351651241827 Q 11.50806787183097 3.5328351651241827 11.442817871830972 3.5328351651241827 Q 11.377567871830971 3.5328351651241827 11.345317871830972 3.4945851651241826 M 12.405078858159097 3.5013351651241824 Q 12.480078858159096 3.5013351651241824 12.537828858159097 3.4608351651241827 Q 12.595578858159097 3.4203351651241825 12.595578858159097 3.3385851651241825 Q 12.595578858159097 3.2568351651241825 12.533328858159097 3.2133351651241826 Q 12.471078858159096 3.1698351651241827 12.356328858159097 3.1375851651241824 Q 12.241578858159096 3.1053351651241825 12.189828858159096 3.0813351651241825 Q 12.138078858159096 3.0573351651241825 12.091578858159096 3.0183351651241828 Q 11.998578858159096 2.9403351651241825 11.998578858159096 2.7768351651241825 Q 11.998578858159096 2.6433351651241823 12.093828858159096 2.5473351651241827 Q 12.189078858159096 2.4513351651241826 12.354078858159097 2.4513351651241826 Q 12.433578858159096 2.4513351651241826 12.519828858159096 2.4745851651241826 Q 12.606078858159096 2.4978351651241826 12.627078858159097 2.4978351651241826 Q 12.648078858159096 2.4978351651241826 12.664578858159096 2.4678351651241828 L 12.681078858159097 2.4678351651241828 L 12.691578858159097 2.7708351651241827 L 12.667578858159096 2.7708351651241827 Q 12.595578858159097 2.6403351651241826 12.516828858159096 2.5615851651241828 Q 12.438078858159097 2.4828351651241825 12.345828858159097 2.4828351651241825 Q 12.253578858159097 2.4828351651241825 12.202578858159097 2.5255851651241827 Q 12.151578858159096 2.5683351651241826 12.151578858159096 2.6395851651241826 Q 12.151578858159096 2.7108351651241827 12.212328858159097 2.7490851651241828 Q 12.273078858159096 2.7873351651241824 12.361578858159097 2.8113351651241825 Q 12.450078858159097 2.8353351651241825 12.477828858159096 2.844335165124183 Q 12.505578858159096 2.8533351651241827 12.546828858159097 2.8690851651241824 Q 12.588078858159097 2.8848351651241826 12.614328858159096 2.9020851651241824 Q 12.640578858159097 2.9193351651241826 12.669828858159097 2.9455851651241827 Q 12.699078858159096 2.9718351651241823 12.715578858159096 3.0033351651241826 Q 12.756078858159096 3.0753351651241827 12.756078858159096 3.1743351651241825 Q 12.756078858159096 3.336335165124183 12.654828858159096 3.4345851651241825 Q 12.553578858159096 3.5328351651241827 12.388578858159097 3.5328351651241827 Q 12.303078858159097 3.5328351651241827 12.192828858159096 3.5103351651241828 Q 12.082578858159096 3.487835165124183 12.070578858159097 3.487835165124183 Q 12.049578858159096 3.487835165124183 12.030078858159097 3.5328351651241827 L 12.009078858159096 3.5328351651241827 L 11.994078858159096 3.1758351651241825 L 12.019578858159097 3.1758351651241825 Q 12.085578858159096 3.3063351651241826 12.188328858159096 3.4038351651241827 Q 12.291078858159096 3.5013351651241824 12.405078858159097 3.5013351651241824 M 13.407825196049721 3.4893351651241824 L 13.29832519604972 3.1653351651241826 L 13.001325196049722 3.1653351651241826 L 12.885825196049721 3.4893351651241824 L 12.998325196049722 3.4893351651241824 L 12.998325196049722 3.5178351651241826 L 12.768825196049722 3.5178351651241826 L 12.768825196049722 3.4893351651241824 L 12.839325196049721 3.4893351651241824 L 13.221825196049721 2.4588351651241824 L 13.344825196049722 2.4588351651241824 L 13.72282519604972 3.4893351651241824 L 13.791825196049722 3.4893351651241824 L 13.791825196049722 3.5178351651241826 L 13.30132519604972 3.5178351651241826 L 13.30132519604972 3.4893351651241824 L 13.407825196049721 3.4893351651241824 M 13.155825196049722 2.7393351651241824 L 13.014825196049722 3.1323351651241826 L 13.286325196049722 3.1323351651241826 L 13.155825196049722 2.7393351651241824 M 14.328048096440346 2.4813351651241824 Q 14.095548096440346 2.4813351651241824 14.095548096440346 2.9298351651241825 L 14.095548096440346 3.0483351651241826 Q 14.095548096440346 3.2613351651241826 14.157048096440347 3.382085165124183 Q 14.218548096440347 3.5028351651241825 14.338548096440347 3.5028351651241825 Q 14.503548096440346 3.5028351651241825 14.641548096440346 3.1818351651241827 L 14.668548096440347 3.1818351651241827 L 14.658048096440346 3.5163351651241825 L 14.641548096440346 3.5163351651241825 Q 14.632548096440347 3.499835165124183 14.625048096440347 3.4930851651241825 Q 14.617548096440347 3.4863351651241827 14.603298096440346 3.4863351651241827 Q 14.589048096440347 3.4863351651241827 14.494548096440347 3.5095851651241827 Q 14.400048096440347 3.5328351651241827 14.302548096440347 3.5328351651241827 Q 14.058048096440347 3.5328351651241827 13.923798096440347 3.4008351651241826 Q 13.789548096440347 3.2688351651241825 13.789548096440347 3.0040851651241827 Q 13.789548096440347 2.7393351651241824 13.929798096440347 2.5953351651241827 Q 14.070048096440347 2.4513351651241826 14.307048096440347 2.4513351651241826 Q 14.398548096440347 2.4513351651241826 14.486298096440347 2.4745851651241826 Q 14.574048096440347 2.4978351651241826 14.589048096440347 2.4978351651241826 Q 14.604048096440346 2.4978351651241826 14.611548096440346 2.4910851651241828 Q 14.619048096440347 2.4843351651241825 14.628048096440347 2.4678351651241828 L 14.644548096440346 2.4678351651241828 L 14.656548096440346 2.7933351651241827 L 14.629548096440347 2.7933351651241827 Q 14.562048096440346 2.6418351651241827 14.490798096440347 2.5615851651241828 Q 14.419548096440346 2.4813351651241824 14.328048096440346 2.4813351651241824" fill="#ffffff" fill-rule="nonzero"></path></g></g><defs><clipPath id="SvgjsClipPath3909"><path d=" M 4.100453241928056 -0.18761212934922233 h 1.6488436395969719 v 2.080447294473405 h -1.6488436395969719 Z"></path></clipPath><clipPath id="SvgjsClipPath390784ef8bad-3f84-405c-835d-e57cf58714ce"><path d=" M 4.100453241928056 -0.18761212934922233 L 5.749296881525028 -0.18761212934922233 L 5.749296881525028 1.8928351651241828 L 4.100453241928056 1.8928351651241828 Z"></path></clipPath></defs></svg>